<svg xmlns="http://www.w3.org/2000/svg" viewBox="0 0 64 80">
  <defs>
    <linearGradient id="lg" x1="0" y1="0" x2="1" y2="1">
      <stop offset="0%" stop-color="#ff8040"/>
      <stop offset="100%" stop-color="#cc2200"/>
    </linearGradient>
  </defs>
  <rect x="26" y="0" width="12" height="22" rx="4" fill="#cc3300"/>
  <circle cx="32" cy="52" r="27" fill="rgba(0,0,0,0.25)"/>
  <circle cx="32" cy="50" r="27" fill="url(#lg)" stroke="#ff4500" stroke-width="2.5"/>
  <circle cx="32" cy="50" r="22" fill="none" stroke="rgba(255,160,60,0.4)" stroke-width="1.5"/>
  <path d="M32 62 C32 62 24 57 24 50 C24 45 27 42 30 40 C30 43 31 44 32 44 C33 42 34 39 36 36 C38 41 40 44 40 50 C40 57 32 62 32 62Z" fill="rgba(255,240,200,0.92)" stroke="rgba(255,180,80,0.5)" stroke-width="0.8"/>
  <path d="M32 58 C32 58 28 55 28 51 C28 48 30 46 32 45 C34 46 36 48 36 51 C36 55 32 58 32 58Z" fill="rgba(255,200,80,0.7)"/>
  <circle cx="22" cy="42" r="5" fill="rgba(255,120,0,0.2)"/>
</svg>
